<svg viewBox="0 0 1200 520" fill="none" xmlns="http://www.w3.org/2000/svg" role="img" aria-labelledby="title desc">
  <title id="title">Michael for OpenClaw</title>
  <desc id="desc">A custom OpenClaw bootstrap banner for Michael, customized by KUGNUS.</desc>
  <defs>
    <linearGradient id="bg" x1="0" y1="0" x2="1200" y2="520" gradientUnits="userSpaceOnUse">
      <stop stop-color="#10131A"/>
      <stop offset="0.58" stop-color="#171A22"/>
      <stop offset="1" stop-color="#271111"/>
    </linearGradient>
    <linearGradient id="claw" x1="410" y1="116" x2="790" y2="458" gradientUnits="userSpaceOnUse">
      <stop stop-color="#FF5A4E"/>
      <stop offset="1" stop-color="#9F1717"/>
    </linearGradient>
    <linearGradient id="accent" x1="290" y1="86" x2="950" y2="420" gradientUnits="userSpaceOnUse">
      <stop stop-color="#38E8D1"/>
      <stop offset="1" stop-color="#FF6A3D"/>
    </linearGradient>
    <filter id="softShadow" x="-20%" y="-20%" width="140%" height="140%" color-interpolation-filters="sRGB">
      <feDropShadow dx="0" dy="24" stdDeviation="28" flood-color="#000000" flood-opacity="0.35"/>
    </filter>
  </defs>

  <rect width="1200" height="520" rx="34" fill="url(#bg)"/>
  <rect x="34" y="34" width="1132" height="452" rx="28" stroke="#2B303B" stroke-width="2"/>
  <path d="M120 410 C250 282 364 476 504 328 C646 178 768 318 875 188 C951 96 1026 121 1080 158" stroke="url(#accent)" stroke-opacity="0.42" stroke-width="2"/>
  <path d="M151 134 H348" stroke="#353B46" stroke-width="2" stroke-linecap="round"/>
  <path d="M852 386 H1056" stroke="#353B46" stroke-width="2" stroke-linecap="round"/>

  <g transform="translate(126 102)">
    <text x="0" y="0" fill="#8BEADF" font-family="Inter, Arial, sans-serif" font-size="18" font-weight="700" letter-spacing="3">OPENCLAW PERSONAL BUILD</text>
    <text x="0" y="86" fill="#F7F1E8" font-family="Inter, Arial, sans-serif" font-size="76" font-weight="900" letter-spacing="0">Michael</text>
    <text x="0" y="136" fill="#D8D2C9" font-family="Inter, Arial, sans-serif" font-size="28" font-weight="600">One-touch workspace bootstrap for macOS and Windows</text>
    <text x="0" y="184" fill="#9CA3AF" font-family="Inter, Arial, sans-serif" font-size="22" font-weight="500">Custom by www.kugnus.com</text>

    <g transform="translate(0 238)">
      <rect x="0" y="0" width="168" height="48" rx="24" fill="#F7F1E8"/>
      <text x="26" y="31" fill="#12151C" font-family="Inter, Arial, sans-serif" font-size="18" font-weight="800">macOS</text>
      <text x="94" y="31" fill="#12151C" font-family="Inter, Arial, sans-serif" font-size="18" font-weight="600">ready</text>
    </g>
    <g transform="translate(186 238)">
      <rect x="0" y="0" width="190" height="48" rx="24" fill="#212733" stroke="#3B4352"/>
      <text x="28" y="31" fill="#F7F1E8" font-family="Inter, Arial, sans-serif" font-size="18" font-weight="800">Windows</text>
      <text x="116" y="31" fill="#C9D0DA" font-family="Inter, Arial, sans-serif" font-size="18" font-weight="600">ready</text>
    </g>
  </g>

  <g transform="translate(766 96)" filter="url(#softShadow)">
    <circle cx="172" cy="172" r="148" fill="#11151E" stroke="#303746" stroke-width="3"/>
    <circle cx="172" cy="172" r="112" fill="#171C27" stroke="#2E3542"/>

    <path d="M172 67 C116 67 87 114 87 151 C87 195 116 231 144 240 L144 259 H163 V243 C171 246 180 246 189 243 V259 H208 V240 C236 231 257 195 257 151 C257 114 228 67 172 67Z" fill="url(#claw)"/>
    <path d="M94 139 C66 130 49 149 59 170 C68 190 91 184 102 160 C108 148 105 141 94 139Z" fill="url(#claw)"/>
    <path d="M250 139 C278 130 295 149 285 170 C276 190 253 184 242 160 C236 148 239 141 250 139Z" fill="url(#claw)"/>
    <path d="M145 76 Q123 49 105 57" stroke="#FF6A5D" stroke-width="7" stroke-linecap="round"/>
    <path d="M199 76 Q221 49 239 57" stroke="#FF6A5D" stroke-width="7" stroke-linecap="round"/>
    <circle cx="145" cy="118" r="13" fill="#050810"/>
    <circle cx="199" cy="118" r="13" fill="#050810"/>
    <circle cx="149" cy="114" r="5" fill="#37E8D1"/>
    <circle cx="203" cy="114" r="5" fill="#37E8D1"/>
    <path d="M133 180 C151 194 191 194 211 180" stroke="#2B0909" stroke-width="8" stroke-linecap="round"/>

    <rect x="54" y="298" width="236" height="52" rx="18" fill="#F7F1E8"/>
    <text x="86" y="331" fill="#12151C" font-family="Inter, Arial, sans-serif" font-size="20" font-weight="900" letter-spacing="1">OPENCLAW</text>
    <text x="207" y="331" fill="#C83B31" font-family="Inter, Arial, sans-serif" font-size="20" font-weight="900">+</text>
    <text x="228" y="331" fill="#12151C" font-family="Inter, Arial, sans-serif" font-size="20" font-weight="900">MICHAEL</text>
  </g>
</svg>
